PathFileType	4	(X/Y/Z)	C:/Users/beibeiliu/ov580/test_trc/User3\sequence.9_training_dense_right.trc
DataRate	CameraRate	NumFrames	NumMarkers	Units	OrigDataRate	OrigDataStartFrame	OrigNumFrames
120	120	18	19	mm	120	37	73
Frame#	Time	ThumbCMC			ThumbMCP			ThumbIP			ThumbTip			IndexMCP			IndexPIP			IndexTip			MiddleMCP			MiddlePIP			MiddleTip			RingMCP			RingPIP			RingTip			PinkyMCP			PinkyPIP			PinkyTip			BackHand1			BackHand2			BackHand3	
		X0	Y0	Z0	X1	Y1	Z1	X2	Y2	Z2	X3	Y3	Z3	X4	Y4	Z4	X5	Y5	Z5	X6	Y6	Z6	X7	Y7	Z7	X8	Y8	Z8	X9	Y9	Z9	X10	Y10	Z10	X11	Y11	Z11	X12	Y12	Z12	X13	Y13	Z13	X14	Y14	Z14	X15	Y15	Z15	X16	Y16	Z16	X17	Y17	Z17	X18	Y18	Z18	
36	0.3	173.087	56.1239	-18.4883	167.699	69.4893	-42.5147	172.087	83.227	-73.7275	172.954	86.6071	-93.4778	210.355	83.5967	-81.1903	213.484	95.8085	-102.339	223.644	102.495	-122.328	226.302	76.8459	-88.7995	233.727	81.3362	-110.781	241.618	94.7481	-139.976	237.843	57.8091	-80.3107	244.888	66.5411	-104.935	252.394	73.9251	-128.57	244.955	37.1071	-67.0321	253.174	46.3862	-90.417	256.561	53.0455	-104.812	230.209	49.8206	-29.9076	227.461	45.207	-4.45738	203.97	64.7693	-16.1143	
37	0.308333	161.31	44.4155	-21.9392	150.513	56.966	-49.8004	150.996	67.924	-82.5053	151.142	69.9627	-102.81	187.772	75.8667	-90.441	191.342	86.022	-112.148	192.296	99.3437	-134.323	209.769	74.2844	-97.1095	215.618	79.7394	-120.738	220.377	91.1425	-149.667	224.032	61.3179	-87.688	227.424	69.7735	-113.063	230.82	77.6257	-134.148	236.598	44.9482	-75.3545	240.312	53.0805	-96.6656	241.886	61.6376	-115.774	220.198	56.432	-35.6997	220.955	52.3554	-11.0261	189.668	65.4616	-29.4592	
38	0.316667	151.794	37.0526	-24.4227	140.336	43.2036	-53.4762	138.19	48.8483	-86.1859	135.716	46.6715	-105.087	172.101	63.0703	-101.69	170.238	70.8751	-123.703	173.077	78.9852	-146.778	196.314	61.7456	-104.089	194.509	66.6449	-128.73	196.158	77.3465	-159.306	207.997	54.4378	-98.7166	212.309	59.2733	-116.815	212.008	66.9624	-142.239	223.906	41.0625	-79.0281	227.936	45.9001	-98.4711	226.763	53.3932	-119.436	207.732	53.4225	-43.5902	207.153	54.7551	-18.4301	177.891	61.3094	-35.332	
39	0.325	140.24	29.1924	-25.5457	132.633	30.4023	-57.7678	130.994	28.8208	-86.2085	125.685	23.5884	-104.995	155.343	43.3788	-100.6	152.474	48.45	-125.986	152.676	53.5758	-151.539	177.848	47.2061	-111.57	180.2	48.2608	-137.114	180.909	52.8911	-166.578	197.853	41.4335	-104.261	195.975	44.4298	-124.337	195.946	48.6627	-150.437	209.751	33.4978	-83.5242	214.194	37.0473	-105.476	213.843	40.8274	-128.008	199.678	48.5777	-50.1433	200.153	52.1184	-20.9146	164.838	53.8519	-40.5917	
40	0.333333	133.358	21.7928	-26.707	123.634	15.1493	-52.8608	117.93	8.9796	-81.7552	116	3.23292	-102.329	143.12	25.8709	-102.13	142.745	24.5525	-127.454	140.895	25.0994	-155.658	169.031	28.9524	-111.254	165.027	24.9441	-134.838	164.065	25.5149	-167.554	187.487	25.3348	-101.647	183.593	25.079	-125.774	185.055	26.0076	-150.381	204.15	22.6246	-85.8741	204.604	22.5037	-108.167	204.296	23.2251	-129.58	186.06	41.0137	-54.4085	188.974	51.0042	-26.9811	157.274	43.4067	-42.0177	
41	0.341667	127.889	18.4811	-23.1539	113.936	7.18281	-46.3142	111.438	-2.65996	-76.4448	104.724	-13.2252	-96.8798	132.198	10.1586	-100.223	131.164	3.77205	-125.247	127.847	-1.06894	-148.064	156.08	11.5531	-112.376	157.301	3.97392	-134.616	155.537	-2.90132	-165.666	176.556	10.43	-103.538	172.537	6.36953	-121.727	173.957	0.202114	-151.524	195.291	10.7709	-82.384	190.612	6.02248	-107.69	193.985	3.05148	-126.594	178.625	36.6021	-54.5168	180.596	45.4077	-32.0343	144.987	38.8601	-42.5267	
42	0.35	121.049	20.8531	-21.2094	106.896	6.29672	-40.706	99.317	-9.42434	-68.9943	91.5959	-22.0623	-86.6083	126.5	-6.27012	-96.6555	123.002	-16.3953	-115.068	119.81	-26.7224	-137.486	149.083	-9.10394	-105.518	147	-20.2745	-122.528	142.196	-33.2503	-151.313	162.868	-9.04608	-93.9252	161.962	-18.7203	-115.368	158.757	-28.6677	-136.051	185.23	-6.09064	-76.8411	183.269	-13.6078	-96.3156	180.433	-22.6492	-118.736	171.221	26.7287	-54.0047	176.022	40.4499	-34.3259	139.054	33.2892	-45.8789	
43	0.358333	112.682	30.7548	-18.7083	100.205	14.3478	-37.3265	89.535	-3.00768	-59.493	81.852	-16.836	-73.7838	117.088	-8.84894	-84.7427	107.405	-25.1467	-109.029	104.433	-37.7887	-125.243	135.577	-17.7731	-91.0936	127.506	-34.4393	-111.631	122.579	-51.1006	-133.851	152.203	-19.3913	-83.5826	146.44	-35.7153	-104.477	146.429	-50.9305	-122.188	172.103	-18.9998	-69.0936	165.551	-30.0759	-85.2811	163.562	-43.4073	-104.011	165.12	19.7375	-50.2102	172.699	36.6892	-33.8398	139.821	35.5146	-41.8373	
44	0.366667	115.202	39.3091	-18.2972	96.4663	29.281	-33.7881	82.2364	11.6909	-54.042	70.5839	-2.44777	-68.2212	104.374	-4.67664	-82.7961	94.3296	-17.9566	-97.722	90.7878	-37.1755	-115.715	120.326	-19.0377	-85.022	112.676	-37.6673	-101.4	100.621	-55.6895	-121.814	136.732	-26.2663	-76.7315	128.074	-40.6868	-93.7584	122.755	-58.7485	-108.257	152.93	-24.2325	-57.5039	148.182	-39.6653	-75.7279	138.566	-51.1774	-90.763	160.629	13.2203	-49.0888	173.089	32.5862	-26.1694	138.346	40.0648	-39.4556	
45	0.375	120.813	52.2458	-16.0939	98.4216	46.1811	-35.6805	79.8307	32.8188	-55.6999	65.1986	20.3577	-68.5875	101.928	8.61619	-74.8616	84.3107	-3.09258	-92.8707	73.3858	-20.4342	-111.187	109.759	-9.53005	-79.221	95.6607	-23.786	-93.001	79.7871	-45.2075	-112.312	123.315	-18.6651	-66.3614	109.673	-35.3971	-84.3963	98.1098	-51.4581	-99.2836	140.042	-26.792	-52.4313	129.125	-35.5706	-64.309	119.948	-53.0935	-81.8609	155.44	13.0609	-40.9488	176.952	25.7362	-21.8126	140.885	43.8972	-39.3629	
46	0.383333	131.682	64.9721	-16.3422	111.585	62.722	-35.6335	88.1394	52.9877	-58.3399	74.758	45.7805	-66.4312	99.4136	26.5579	-74.9782	83.5472	14.4485	-91.4002	66.9281	0.661754	-109.936	103.786	2.00495	-75.1894	83.7817	-8.16705	-91.1888	62.7134	-22.7638	-107.611	111.838	-9.01972	-62.8512	93.2799	-21.0827	-79.3523	75.6901	-33.668	-93.3972	124.115	-23.4173	-48.0926	107.979	-32.8705	-62.0938	93.9567	-37.7002	-74.6247	151.348	5.45873	-37.6122	173.077	15.6156	-20.0788	151.191	41.9108	-35.9577	
47	0.391667	147.344	64.5816	-13.3385	127.246	74.3251	-38.7734	105.77	72.3542	-59.9466	88.8834	64.8622	-72.3376	105.369	40.3981	-75.4139	86.5417	30.7181	-93.5329	70.4669	29.0669	-111.518	98.0323	11.9167	-74.9788	75.5325	9.47192	-92.3988	51.8316	5.39532	-110.9	102.045	0.591957	-60.6946	80.174	-7.25395	-77.3986	61.6938	-10.4433	-90.5566	107.18	-12.6007	-44.1032	91.4258	-13.945	-57.8462	76.482	-19.3835	-72.2696	147.861	4.18566	-33.4205	169.741	10.3549	-13.71	159.005	39.9291	-31.8831	
48	0.4	156.879	61.5552	-14.8481	144.088	73.8848	-39.7012	123.39	75.1661	-65.323	109.223	77.4908	-76.6506	109.756	42.1308	-81.5818	98.0658	45.8946	-97.4618	81.4337	40.1714	-114.966	96.0035	21.6688	-76.7935	77.8551	26.5884	-93.901	54.9007	27.4068	-115.062	94.8997	12.1825	-63.9679	77.3483	10.7366	-76.6539	53.4021	8.79798	-96.4886	94.9627	-2.6811	-42.5454	78.3243	-4.72954	-56.9982	65.7755	-1.53893	-73.0642	139.027	1.71669	-29.4012	157.573	-1.32092	-11.4951	159.978	31.2323	-31.264	
49	0.408333	163.591	47.1819	-15.1048	157.749	57.9404	-45.2009	147.012	66.1695	-68.3128	133.042	68.6555	-86.8584	125.031	36.1791	-81.7639	111.538	38.1659	-106.697	100.128	36.2768	-127.471	109.029	23.6555	-80.0788	87.1802	26.0793	-102.187	73.3786	31.6725	-124.148	94.7523	12.6025	-67.5014	84.789	18.2289	-84.3823	66.8584	17.8677	-106.692	93.5015	4.89555	-45.8512	77.073	5.02058	-61.942	70.238	5.85233	-79.4333	131.479	-3.82579	-29.1034	147.229	-6.63757	-5.96486	161.685	16.2806	-27.7463	
50	0.416667	179.81	32.9086	-15.5826	182.164	40.8606	-43.4438	176.316	43.9479	-70.0912	169.56	46.5312	-93.7659	154.442	15.2676	-87.3288	148.266	15.1115	-111.313	140.555	11.9578	-132.47	132.51	6.46643	-90.5046	124.785	10.6996	-111.182	110.141	10.3109	-138.465	115.308	1.34215	-75.184	109.502	4.61514	-94.5983	98.1854	3.59601	-120.974	106.241	-0.24837	-55.5526	101.046	1.02997	-75.1946	89.7239	-3.10173	-93.2261	138.515	-11.6112	-30.8556	146.612	-16.7601	-2.61764	168.552	0.426313	-20.3648	
51	0.425	197.38	26.6886	-8.14096	203.51	26.5155	-39.7124	203.974	28.2388	-66.1186	204.241	28.21	-90.4545	188.194	-4.5265	-79.6876	187.578	-8.56012	-104.918	189.055	-14.3149	-131.666	170.849	-15.4401	-84.929	169.799	-16.7915	-112.115	167.944	-18.9914	-146.587	150.031	-18.9084	-77.7378	153.372	-18.9495	-104.354	147.814	-24.1953	-129.069	137.115	-17.1861	-64.0001	132.456	-19.5662	-81.4096	134.707	-25.3805	-106.441	160.063	-23.5873	-29.3858	157.961	-25.1392	1.91762	189.925	-8.93686	-15.2086	
52	0.433333	206.585	33.0604	-7.78723	217.662	37.0308	-36.3913	221.424	32.486	-64.4754	226.925	35.0495	-85.1992	219.033	-4.62974	-78.1535	227.468	-10.1	-102.123	227.739	-21.529	-126.829	208.644	-21.9387	-83.0769	214.701	-22.7816	-107.516	216.354	-31.8047	-139.172	192.449	-26.5462	-78.346	196.499	-30.3595	-99.7979	200.521	-38.0617	-126.176	173.487	-29.1665	-62.8213	177.673	-33.0541	-83.3804	183.307	-38.8861	-103.895	188.252	-27.7688	-25.476	185.185	-21.921	5.8019	208.206	-2.31529	-11.4921	
53	0.441667	203.486	46.7154	-7.35352	215.216	55.7631	-34.8543	222.475	54.121	-61.4512	230.705	53.4887	-86.4231	236.775	17.8359	-71.5496	245.805	11.6226	-93.552	254.23	3.21628	-116.531	236.929	-0.252838	-77.3652	246.466	-6.32337	-104.671	255.062	-12.1344	-130.074	224.84	-17.6867	-74.8526	231.849	-19.6837	-93.7257	243.186	-20.1184	-120.518	207.214	-27.9824	-58.7116	214.245	-31.8532	-78.0868	225.911	-30.3336	-96.9827	216.681	-15.1026	-19.4742	210.131	-11.884	7.36054	225.004	18.9844	-8.67755	
